<svg xmlns="http://www.w3.org/2000/svg" viewBox="0 0 760 280" role="img" aria-labelledby="title desc"><title id="title">J&amp;M Plasters</title><desc id="desc">J&amp;M Plasters logo with trowel</desc><defs><filter id="s" x="-20%" y="-20%" width="140%" height="140%"><feDropShadow dx="0" dy="8" stdDeviation="8" flood-color="#000" flood-opacity=".45"/></filter></defs><rect width="760" height="280" rx="34" fill="#050505"/><g filter="url(#s)"><text x="54" y="118" font-family="Georgia, 'Times New Roman', serif" font-size="104" font-weight="900" fill="#fff">J</text><text x="144" y="110" font-family="Arial, Helvetica, sans-serif" font-size="52" font-weight="900" fill="#fff">&amp;</text><text x="210" y="118" font-family="Georgia, 'Times New Roman', serif" font-size="104" font-weight="900" fill="#f47b00">M</text><text x="55" y="178" font-family="Arial, Helvetica, sans-serif" font-size="48" font-weight="900" letter-spacing="12" fill="#f47b00">PLASTERS</text><text x="58" y="217" font-family="Arial, Helvetica, sans-serif" font-size="24" font-weight="800" letter-spacing="4" fill="#fff">QUALITY WORK. LASTING FINISH.</text><g transform="translate(510 65) rotate(-18)"><path d="M0 112 L170 112 L138 146 L32 146 Z" fill="#fff"/><path d="M25 121 L154 121 L136 136 L43 136 Z" fill="#111"/><path d="M163 113 L216 113 Q236 113 236 133 Q236 153 216 153 L148 153 Z" fill="#f47b00"/><rect x="211" y="122" width="95" height="22" rx="11" fill="#f47b00"/><rect x="302" y="125" width="38" height="16" rx="8" fill="#222"/></g></g></svg>